<svg version="1.1" id="Layer_1" xmlns="http://www.w3.org/2000/svg" xmlns:xlink="http://www.w3.org/1999/xlink" x="0px" y="0px"
	 width="100%" viewBox="0 0 1254 1254" enable-background="new 0 0 1254 1254" xml:space="preserve">
<path fill="#FAFAFA" opacity="1.000000" stroke="none" 
	d="
M1255.000000,432.000000 
	C1255.000000,706.666626 1255.000000,980.833252 1255.000000,1255.000000 
	C837.000122,1255.000000 419.000244,1255.000000 1.000279,1255.000000 
	C1.000186,837.000183 1.000186,419.000397 1.000093,1.000447 
	C418.999725,1.000298 836.999451,1.000298 1254.999512,1.000149 
	C1255.000000,144.500000 1255.000000,288.000000 1255.000000,432.000000 
M1050.500122,9.633701 
	C1016.003235,9.638545 981.506348,9.646899 947.009460,9.647670 
	C692.537048,9.653349 438.064545,9.711564 183.592178,9.584927 
	C155.814072,9.571103 129.489426,15.407491 105.424850,28.894243 
	C46.095726,62.144661 13.339566,113.134544 13.170445,181.240494 
	C12.426809,480.706268 12.852764,780.174927 12.883488,1079.642578 
	C12.883931,1083.967529 12.978287,1088.325562 13.494436,1092.612061 
	C17.989517,1129.942749 32.692928,1162.790771 58.071945,1190.488647 
	C90.671707,1226.067139 131.029602,1246.535522 179.637192,1246.591431 
	C478.437988,1246.935303 777.239441,1246.763794 1076.040649,1246.715698 
	C1081.694702,1246.714844 1087.387939,1246.445435 1092.996826,1245.759521 
	C1176.717163,1235.520264 1243.102783,1160.654297 1243.117554,1076.294312 
	C1243.169434,778.826538 1243.181519,481.358734 1243.016602,183.891083 
	C1243.010132,172.303848 1241.868530,160.568665 1239.834717,149.155640 
	C1228.003540,82.760162 1173.186035,26.834967 1107.250244,12.887128 
	C1088.766968,8.977235 1070.131226,9.859446 1050.500122,9.633701 
z"/>
<path fill="#033628" opacity="1.000000" stroke="none" 
	d="
M1051.000244,9.634764 
	C1070.131226,9.859446 1088.766968,8.977235 1107.250244,12.887128 
	C1173.186035,26.834967 1228.003540,82.760162 1239.834717,149.155640 
	C1241.868530,160.568665 1243.010132,172.303848 1243.016602,183.891083 
	C1243.181519,481.358734 1243.169434,778.826538 1243.117554,1076.294312 
	C1243.102783,1160.654297 1176.717163,1235.520264 1092.996826,1245.759521 
	C1087.387939,1246.445435 1081.694702,1246.714844 1076.040649,1246.715698 
	C777.239441,1246.763794 478.437988,1246.935303 179.637192,1246.591431 
	C131.029602,1246.535522 90.671707,1226.067139 58.071945,1190.488647 
	C32.692928,1162.790771 17.989517,1129.942749 13.494436,1092.612061 
	C12.978287,1088.325562 12.883931,1083.967529 12.883488,1079.642578 
	C12.852764,780.174927 12.426809,480.706268 13.170445,181.240494 
	C13.339566,113.134544 46.095726,62.144661 105.424850,28.894243 
	C129.489426,15.407491 155.814072,9.571103 183.592178,9.584927 
	C438.064545,9.711564 692.537048,9.653349 947.009460,9.647670 
	C981.506348,9.646899 1016.003235,9.638545 1051.000244,9.634764 
M530.839905,799.045776 
	C530.784241,788.686157 530.728577,778.326477 530.816956,767.045593 
	C530.761353,754.352600 530.705750,741.659546 530.805481,728.047180 
	C530.838867,719.088440 530.924988,710.129578 530.894348,701.171082 
	C530.838196,684.753113 530.713196,668.335388 530.797607,651.010315 
	C530.838501,601.715942 530.876526,552.421631 530.923218,503.127289 
	C530.931030,494.852142 530.277161,494.190399 521.835999,494.191223 
	C494.024384,494.193909 466.212799,494.197479 438.401184,494.201721 
	C433.405121,494.202484 428.409027,494.220337 423.412994,494.206299 
	C420.485046,494.198059 418.887573,495.096832 418.919220,498.552063 
	C419.125153,521.029785 419.147064,543.509216 419.094086,566.917480 
	C419.135590,589.270081 419.177094,611.622742 419.077728,634.908569 
	C419.113434,656.598450 419.149139,678.288330 419.060059,700.912964 
	C419.100586,719.935486 419.141083,738.958069 419.064484,758.912231 
	C419.051453,762.888367 418.831787,766.879822 419.126495,770.833069 
	C419.245422,772.428650 420.066559,774.560974 421.287689,775.393188 
	C432.078644,782.747498 443.031464,789.864258 454.287994,797.624878 
	C459.445160,801.498291 464.639832,805.322998 469.751343,809.255798 
	C479.184387,816.513550 488.568665,823.834839 498.286560,831.702454 
	C508.878265,841.056030 519.470032,850.409607 530.771301,860.389771 
	C530.771301,850.513855 530.771301,841.731750 530.888611,832.138733 
	C530.855225,830.775208 530.821838,829.411621 530.896729,827.191101 
	C530.629883,823.156555 530.363037,819.122009 530.122314,814.162903 
	C530.318848,809.431946 530.515442,804.700928 530.839905,799.045776 
M833.573547,774.967224 
	C833.871704,774.254578 834.169861,773.541992 834.460571,771.947632 
	C834.406128,768.987793 834.351746,766.027893 834.774780,762.515869 
	C834.877014,757.362366 834.979309,752.208862 835.146057,746.166138 
	C835.127686,744.088745 835.109253,742.011353 835.173462,739.007690 
	C834.902283,728.719482 834.631042,718.431335 834.740601,707.429932 
	C834.851379,704.969360 834.962158,702.508789 835.152832,699.149414 
	C835.133545,696.743774 835.114197,694.338196 835.197266,691.064758 
	C835.173767,688.736572 835.150269,686.408386 835.368958,683.302612 
	C835.287842,679.170044 835.206726,675.037537 835.222778,670.056946 
	C835.190491,668.067871 835.158142,666.078735 835.198242,663.180115 
	C835.177673,660.752258 835.157104,658.324341 835.237305,655.298523 
	C835.225281,654.895386 835.213257,654.492188 835.564026,653.347168 
	C835.629761,628.147217 835.720886,602.947205 835.684448,577.747437 
	C835.682617,576.516541 834.563416,575.287170 833.050232,573.859924 
	C798.018127,573.823792 762.985962,573.774109 727.953918,573.804565 
	C726.635315,573.805725 725.317322,574.584351 723.851807,575.928772 
	C723.889893,604.955566 723.927917,633.982361 723.863037,663.940247 
	C723.898193,683.629517 723.933350,703.318726 723.882507,723.940613 
	C723.912537,737.295349 723.942566,750.650146 723.903870,764.939087 
	C723.927856,773.294373 723.951782,781.649597 723.909241,790.939758 
	C723.933228,800.294800 723.957275,809.649902 723.923279,819.939819 
	C723.923279,833.004272 723.923279,846.068726 723.923279,859.966431 
	C725.259705,858.955200 725.899536,858.527771 726.475464,858.026917 
	C736.489441,849.318848 746.417419,840.509888 756.526428,831.913696 
	C765.616028,824.184265 774.902588,816.686340 784.715454,808.799988 
	C795.181824,801.223572 805.648254,793.647217 816.764954,785.911072 
	C819.172302,784.263245 821.579651,782.615417 824.628601,780.741455 
	C827.414734,778.850891 830.200928,776.960388 833.573547,774.967224 
M563.352417,783.821960 
	C563.437866,799.836670 563.523254,815.851440 563.317871,832.775757 
	C563.267639,851.166626 563.177673,869.557678 563.243347,887.948181 
	C563.248535,889.405029 564.332520,890.858154 565.058228,892.934143 
	C571.997498,900.646423 578.936768,908.358704 586.197327,916.664978 
	C600.064636,934.533569 613.931885,952.402161 627.909546,970.413025 
	C631.009033,966.063660 633.971252,961.463318 637.371521,957.213501 
	C650.821838,940.403015 664.409485,923.702393 678.495422,906.596130 
	C681.181335,903.665039 684.074524,900.892944 686.485779,897.751038 
	C688.317200,895.364563 690.631226,892.582764 690.819336,889.845520 
	C691.363403,881.927734 690.942566,873.943726 690.989868,865.054260 
	C690.952881,855.364929 690.915833,845.675659 690.981018,835.055664 
	C690.787231,820.424316 690.593445,805.792969 690.540100,790.294006 
	C690.510498,776.586914 690.480896,762.879822 690.607544,748.321350 
	C690.578979,730.284607 690.550476,712.247864 690.691162,693.343811 
	C690.758606,691.856873 690.891052,690.369629 690.883484,688.883057 
	C690.802551,672.997498 690.699341,657.112122 690.857483,640.419250 
	C690.792969,615.387695 690.728516,590.356140 690.832214,564.386475 
	C690.872986,561.239990 690.972046,558.092957 690.944763,554.947021 
	C690.801331,538.402893 690.625916,521.859131 690.760620,504.394928 
	C690.655823,502.485413 690.551025,500.575897 690.783875,497.824036 
	C690.762756,492.668365 690.741699,487.512726 690.934875,481.523163 
	C690.903137,463.677673 690.871460,445.832214 690.994080,427.200897 
	C690.943176,426.138519 690.892334,425.076111 691.020264,423.089630 
	C690.965454,408.056854 690.910645,393.024078 691.006226,377.253052 
	C690.957825,376.504852 690.909424,375.756683 691.025452,374.343292 
	C690.972473,373.892853 690.919495,373.442444 691.017090,372.172760 
	C691.017090,369.396545 691.017090,366.620361 691.017090,363.504944 
	C648.251160,363.504944 606.088074,363.504944 563.298767,363.504944 
	C563.298767,366.118927 563.298157,368.411774 563.298828,370.704651 
	C563.317078,437.123199 563.332581,503.541718 563.370178,569.960266 
	C563.371094,571.609619 563.616211,573.258911 563.402710,575.804016 
	C563.386841,614.855042 563.369202,653.906067 563.370605,692.957092 
	C563.370667,693.606384 563.603394,694.255676 563.380371,695.802917 
	C563.348999,723.031677 563.309692,750.260437 563.303772,777.489197 
	C563.303345,779.300049 563.556274,781.110962 563.352417,783.821960 
M616.002319,102.869606 
	C606.340271,107.214706 596.071228,110.570473 587.114685,116.065483 
	C529.027222,151.703033 514.256531,229.518707 554.415771,286.236389 
	C603.143860,355.056000 708.313965,349.576843 749.405945,276.057068 
	C750.219727,274.601135 750.631531,272.920532 751.350952,271.029114 
	C750.242310,271.119843 749.839050,271.032715 749.605835,271.192963 
	C748.650391,271.849579 747.737610,272.570099 746.825256,273.287598 
	C728.475464,287.719147 707.733582,296.171906 684.346863,296.998291 
	C606.768311,299.739563 552.303040,222.960556 580.484985,150.634552 
	C587.955139,131.463181 599.828125,115.437592 616.408752,102.891197 
	C616.368408,102.757149 616.328064,102.623093 616.287659,102.489044 
	C616.200012,102.542267 616.112427,102.595490 616.024780,102.648689 
	C616.274170,102.883659 616.523560,103.118637 616.002319,102.869606 
M294.470795,845.980347 
	C367.106354,868.718628 434.048859,902.605408 494.812927,948.514465 
	C541.149109,983.522827 581.677917,1024.191162 614.556824,1072.238159 
	C618.919434,1078.613403 623.137268,1085.087646 627.066589,1090.982666 
	C728.511292,944.472473 871.291321,863.145447 1042.295898,825.167847 
	C1042.295898,791.159241 1042.295898,756.297729 1042.295898,719.952515 
	C867.624573,774.408508 727.731628,873.943115 626.866577,1026.791748 
	C581.952942,950.189819 520.958862,887.539612 449.202057,835.069092 
	C377.386993,782.555908 298.786011,743.851013 212.374756,720.775879 
	C212.374756,756.370056 212.374756,791.427002 212.374756,824.970337 
	C239.927078,832.027466 266.809265,838.912964 294.470795,845.980347 
M996.291931,869.891907 
	C844.233643,908.224548 721.443176,990.460205 627.531616,1115.497559 
	C523.163635,975.482361 385.422852,889.810120 212.280426,860.228516 
	C212.280426,894.575439 212.280426,927.658508 212.280426,960.982666 
	C213.806198,961.082886 215.097198,961.221375 216.390274,961.244812 
	C254.009369,961.927368 291.066803,966.844910 327.689850,975.468384 
	C386.459564,989.306641 441.580444,1012.235840 494.018768,1041.848389 
	C531.490112,1063.009033 566.112976,1088.004517 595.433044,1119.754761 
	C606.587036,1131.833374 617.016418,1144.580933 627.550598,1156.762939 
	C636.733826,1146.053467 645.788025,1134.705688 655.696716,1124.160889 
	C665.607605,1113.613770 675.944275,1103.379028 686.840759,1093.862061 
	C725.769836,1059.860718 769.673706,1033.613037 816.734375,1012.609436 
	C882.423889,983.291443 950.990601,965.328796 1023.048645,961.725525 
	C1029.458008,961.405029 1035.897339,961.682983 1042.456299,961.682983 
	C1042.456299,927.525269 1042.456299,894.600342 1042.456299,860.683289 
	C1027.038208,863.747681 1012.070984,866.722534 996.291931,869.891907 
M701.852112,213.418076 
	C704.760010,208.762451 708.082947,204.307297 710.455933,199.393356 
	C712.711914,194.721939 715.532898,193.977173 720.269592,195.217239 
	C729.223267,197.561264 738.334167,199.304306 748.877075,201.626953 
	C740.789307,191.543518 733.648315,182.640396 726.430603,173.641678 
	C732.383362,163.692490 738.317749,153.774078 744.887939,142.793091 
	C735.756348,146.302780 727.763916,149.387985 719.761353,152.446808 
	C711.158569,155.735062 711.158020,155.721039 705.161438,148.998062 
	C702.059875,145.520844 698.933655,142.065582 695.835449,138.585388 
	C693.157837,135.577545 690.504028,132.548431 687.067993,128.654053 
	C687.719482,138.612747 688.315125,147.214249 688.836243,155.820267 
	C689.383423,164.855148 689.342590,164.836472 681.284729,168.598877 
	C673.577881,172.197388 665.893982,175.844849 657.032166,180.021133 
	C665.440613,182.171387 672.475037,183.951401 679.499268,185.770737 
	C691.361450,188.843170 691.261536,188.861008 692.182678,200.971024 
	C692.758911,208.546310 693.681702,216.095215 694.584167,224.987579 
	C697.414734,220.466339 699.432373,217.243698 701.852112,213.418076 
z"/>
<path fill="#FCFCFC" opacity="1.000000" stroke="none" 
	d="
M294.081116,845.889404 
	C266.809265,838.912964 239.927078,832.027466 212.374756,824.970337 
	C212.374756,791.427002 212.374756,756.370056 212.374756,720.775879 
	C298.786011,743.851013 377.386993,782.555908 449.202057,835.069092 
	C520.958862,887.539612 581.952942,950.189819 626.866577,1026.791748 
	C727.731628,873.943115 867.624573,774.408508 1042.295898,719.952515 
	C1042.295898,756.297729 1042.295898,791.159241 1042.295898,825.167847 
	C871.291321,863.145447 728.511292,944.472473 627.066589,1090.982666 
	C623.137268,1085.087646 618.919434,1078.613403 614.556824,1072.238159 
	C581.677917,1024.191162 541.149109,983.522827 494.812927,948.514465 
	C434.048859,902.605408 367.106354,868.718628 294.081116,845.889404 
z"/>
<path fill="#FCFCFC" opacity="1.000000" stroke="none" 
	d="
M996.697815,869.794678 
	C1012.070984,866.722534 1027.038208,863.747681 1042.456299,860.683289 
	C1042.456299,894.600342 1042.456299,927.525269 1042.456299,961.682983 
	C1035.897339,961.682983 1029.458008,961.405029 1023.048645,961.725525 
	C950.990601,965.328796 882.423889,983.291443 816.734375,1012.609436 
	C769.673706,1033.613037 725.769836,1059.860718 686.840759,1093.862061 
	C675.944275,1103.379028 665.607605,1113.613770 655.696716,1124.160889 
	C645.788025,1134.705688 636.733826,1146.053467 627.550598,1156.762939 
	C617.016418,1144.580933 606.587036,1131.833374 595.433044,1119.754761 
	C566.112976,1088.004517 531.490112,1063.009033 494.018768,1041.848389 
	C441.580444,1012.235840 386.459564,989.306641 327.689850,975.468384 
	C291.066803,966.844910 254.009369,961.927368 216.390274,961.244812 
	C215.097198,961.221375 213.806198,961.082886 212.280426,960.982666 
	C212.280426,927.658508 212.280426,894.575439 212.280426,860.228516 
	C385.422852,889.810120 523.163635,975.482361 627.531616,1115.497559 
	C721.443176,990.460205 844.233643,908.224548 996.697815,869.794678 
z"/>
<path fill="#9DC866" opacity="1.000000" stroke="none" 
	d="
M690.839844,427.986725 
	C690.871460,445.832214 690.903137,463.677673 690.380371,481.829163 
	C688.791687,482.516022 687.715759,483.303528 686.731018,483.202362 
	C683.624268,482.883179 680.344788,482.730377 677.526367,481.562012 
	C674.895447,480.471405 672.667297,478.282715 670.442322,476.367767 
	C666.697937,473.145325 664.960205,477.559326 662.253296,478.268372 
	C660.930054,478.614990 659.418335,478.215881 657.991699,478.209351 
	C657.532959,478.207275 657.073425,478.381165 656.458374,478.506256 
	C656.458374,479.951660 656.458374,481.310486 656.458374,483.463196 
	C653.643433,482.608765 651.385437,481.923401 648.936157,481.179962 
	C648.568481,481.590637 648.145447,482.069794 647.715271,482.542511 
	C645.354370,485.136871 643.147339,487.163147 641.639038,481.796173 
	C641.432922,481.062561 639.909485,480.645111 638.945007,480.189209 
	C636.454224,479.011871 633.966858,477.816467 631.417358,476.777374 
	C629.150208,475.853271 626.854004,474.875732 624.475037,474.383972 
	C621.802185,473.831451 619.008301,473.891907 616.294983,473.494873 
	C615.063171,473.314606 613.276917,471.950378 612.802185,472.357941 
	C609.133667,475.507263 604.923645,473.665344 600.975098,474.061829 
	C596.322693,474.528961 593.299683,477.213654 590.978271,481.243805 
	C588.891357,484.866943 586.829529,489.168732 583.542358,491.286163 
	C578.144165,494.763458 571.622437,496.126617 565.001953,495.627869 
	C565.001404,494.496674 565.003784,493.742645 565.293701,492.708862 
	C565.390198,489.290924 565.199158,486.152740 565.004639,482.575195 
	C565.003601,480.085419 565.006042,478.035004 565.297180,475.700806 
	C565.394165,471.950958 565.202454,468.484894 565.006958,464.587280 
	C565.006714,462.429230 565.010315,460.702667 565.299744,458.697174 
	C565.395752,455.288025 565.205994,452.157776 565.012451,448.685089 
	C565.011047,447.885956 565.013489,447.429321 565.308289,446.679199 
	C565.410889,439.273407 565.221130,432.161072 565.022705,424.577057 
	C565.011475,406.126068 565.138489,388.145081 564.911194,370.168579 
	C564.857361,365.911255 566.250854,364.903259 570.306458,364.923676 
	C600.604187,365.076202 630.903137,365.000641 661.201660,365.017426 
	C662.620239,365.018219 664.038696,365.217499 665.537781,365.330383 
	C664.832336,369.604004 664.199219,373.439270 663.618652,376.956329 
	C666.575745,379.291351 669.954834,381.239441 672.341187,384.034943 
	C675.039429,387.195831 675.740784,391.692230 682.205444,389.652496 
	C684.719543,388.859222 687.455811,388.534149 688.269592,386.356873 
	C688.983704,384.446106 688.417358,381.529572 687.392456,379.601776 
	C684.984070,375.071716 685.585876,373.546478 690.866577,372.992004 
	C690.919495,373.442444 690.972473,373.892853 690.587891,374.683929 
	C689.493958,375.552338 688.837524,376.080109 688.181152,376.607849 
	C689.072754,377.069000 689.964294,377.530151 690.855896,377.991272 
	C690.910645,393.024078 690.965454,408.056854 690.603394,423.621674 
	C690.404297,425.431366 690.622070,426.709045 690.839844,427.986725 
M677.663269,397.519104 
	C678.302917,397.040009 678.942627,396.560913 679.582275,396.081787 
	C679.279297,395.788513 678.976318,395.495239 678.673340,395.201965 
	C678.199768,395.811798 677.726135,396.421631 677.663269,397.519104 
z"/>
<path fill="#FAFBFB" opacity="1.000000" stroke="none" 
	d="
M616.700684,103.355507 
	C599.828125,115.437592 587.955139,131.463181 580.484985,150.634552 
	C552.303040,222.960556 606.768311,299.739563 684.346863,296.998291 
	C707.733582,296.171906 728.475464,287.719147 746.825256,273.287598 
	C747.737610,272.570099 748.650391,271.849579 749.605835,271.192963 
	C749.839050,271.032715 750.242310,271.119843 751.350952,271.029114 
	C750.631531,272.920532 750.219727,274.601135 749.405945,276.057068 
	C708.313965,349.576843 603.143860,355.056000 554.415771,286.236389 
	C514.256531,229.518707 529.027222,151.703033 587.114685,116.065483 
	C596.071228,110.570473 606.340271,107.214706 616.355652,103.091904 
	C616.708984,103.314209 616.700684,103.355507 616.700684,103.355507 
z"/>
<path fill="#90BE60" opacity="1.000000" stroke="none" 
	d="
M565.004883,496.005035 
	C571.622437,496.126617 578.144165,494.763458 583.542358,491.286163 
	C586.829529,489.168732 588.891357,484.866943 590.978271,481.243805 
	C593.299683,477.213654 596.322693,474.528961 600.975098,474.061829 
	C604.923645,473.665344 609.133667,475.507263 612.802185,472.357941 
	C613.276917,471.950378 615.063171,473.314606 616.294983,473.494873 
	C619.008301,473.891907 621.802185,473.831451 624.475037,474.383972 
	C626.854004,474.875732 629.150208,475.853271 631.417358,476.777374 
	C633.966858,477.816467 636.454224,479.011871 638.945007,480.189209 
	C639.909485,480.645111 641.432922,481.062561 641.639038,481.796173 
	C643.147339,487.163147 645.354370,485.136871 647.715271,482.542511 
	C648.145447,482.069794 648.568481,481.590637 648.936157,481.179962 
	C651.385437,481.923401 653.643433,482.608765 656.458374,483.463196 
	C656.458374,481.310486 656.458374,479.951660 656.458374,478.506256 
	C657.073425,478.381165 657.532959,478.207275 657.991699,478.209351 
	C659.418335,478.215881 660.930054,478.614990 662.253296,478.268372 
	C664.960205,477.559326 666.697937,473.145325 670.442322,476.367767 
	C672.667297,478.282715 674.895447,480.471405 677.526367,481.562012 
	C680.344788,482.730377 683.624268,482.883179 686.731018,483.202362 
	C687.715759,483.303528 688.791687,482.516022 690.273315,482.246094 
	C690.741699,487.512726 690.762756,492.668365 690.273560,498.514557 
	C689.996094,501.241791 690.228821,503.278473 690.461548,505.315186 
	C690.625916,521.859131 690.801331,538.402893 690.944763,554.947021 
	C690.972046,558.092957 690.872986,561.239990 690.310913,564.752686 
	C688.578735,566.382568 687.332336,567.614624 686.166016,568.918213 
	C684.705994,570.549988 683.634216,573.048218 681.833740,573.767151 
	C673.710144,577.010681 665.456665,576.156067 657.063416,574.155396 
	C650.426086,572.573242 643.564026,571.837341 636.762268,571.080261 
	C633.056458,570.667786 629.252075,571.202393 625.523865,570.907654 
	C623.317139,570.733154 621.205139,569.562012 618.991760,569.219971 
	C615.972839,568.753418 612.816528,568.999084 609.865479,568.311218 
	C605.110168,567.203003 600.478821,565.566589 595.780945,564.202087 
	C595.345886,564.075684 594.797607,564.252441 594.321228,564.367981 
	C589.571045,565.519409 584.805054,566.612854 580.083496,567.872498 
	C575.553284,569.081116 571.070374,570.466858 566.677673,571.742493 
	C566.012451,568.695190 565.498901,566.342712 564.982910,563.541626 
	C564.984131,560.398865 564.987793,557.704712 565.240845,554.824341 
	C565.324646,553.756409 565.159119,552.874573 564.989014,551.526367 
	C564.994019,546.034790 565.003479,541.009705 565.276978,535.754517 
	C565.366577,534.023071 565.192139,532.521729 565.009583,530.550537 
	C565.002625,518.722107 565.003723,507.363586 565.004883,496.005035 
z"/>
<path fill="#5CA459" opacity="1.000000" stroke="none" 
	d="
M723.966003,663.009155 
	C723.927917,633.982361 723.889893,604.955566 724.394165,575.469482 
	C759.378479,575.008179 793.820374,575.021179 828.262268,574.963684 
	C830.163513,574.960510 832.063782,574.372742 833.964539,574.057129 
	C834.563416,575.287170 835.682617,576.516541 835.684448,577.747437 
	C835.720886,602.947205 835.629761,628.147217 834.995605,653.698486 
	C832.606201,655.314453 830.914246,656.846741 828.942078,657.798096 
	C819.455566,662.374268 809.078064,664.123169 799.057800,667.016296 
	C795.502197,668.042847 792.734924,667.214661 790.051880,664.697632 
	C788.692444,663.422241 786.711243,662.455444 784.871155,662.121948 
	C781.272461,661.469788 777.579712,661.138367 773.918274,661.067200 
	C762.957397,660.854187 752.328918,659.026917 742.036255,655.212463 
	C741.171509,654.891968 739.609619,654.771240 739.162476,655.268677 
	C735.328308,659.534363 731.027100,657.478455 727.206055,656.228760 
	C726.019714,658.711426 724.992859,660.860291 723.966003,663.009155 
z"/>
<path fill="#84B55B" opacity="1.000000" stroke="none" 
	d="
M564.985352,563.990234 
	C565.498901,566.342712 566.012451,568.695190 566.677673,571.742493 
	C571.070374,570.466858 575.553284,569.081116 580.083496,567.872498 
	C584.805054,566.612854 589.571045,565.519409 594.321228,564.367981 
	C594.797607,564.252441 595.345886,564.075684 595.780945,564.202087 
	C600.478821,565.566589 605.110168,567.203003 609.865479,568.311218 
	C612.816528,568.999084 615.972839,568.753418 618.991760,569.219971 
	C621.205139,569.562012 623.317139,570.733154 625.523865,570.907654 
	C629.252075,571.202393 633.056458,570.667786 636.762268,571.080261 
	C643.564026,571.837341 650.426086,572.573242 657.063416,574.155396 
	C665.456665,576.156067 673.710144,577.010681 681.833740,573.767151 
	C683.634216,573.048218 684.705994,570.549988 686.166016,568.918213 
	C687.332336,567.614624 688.578735,566.382568 690.226807,565.221680 
	C690.728516,590.356140 690.792969,615.387695 690.301147,640.748291 
	C688.068970,641.970032 686.263245,642.684875 684.745361,643.793640 
	C681.858398,645.902588 678.398682,647.580627 675.719177,644.891663 
	C671.528625,640.686340 663.836792,643.736938 661.041138,637.242188 
	C660.916382,636.952393 659.716919,636.871338 659.147156,637.067688 
	C655.030518,638.486389 650.941650,639.986938 646.854797,641.490723 
	C643.600891,642.688110 641.298706,645.510864 636.863037,644.628052 
	C628.397339,642.943115 619.692383,642.463989 611.090088,641.455750 
	C610.175476,641.348450 609.292175,640.935242 608.378723,640.864502 
	C606.499268,640.718811 604.555786,640.393311 602.733582,640.701904 
	C597.208801,641.637756 591.705444,642.298279 586.866577,638.744568 
	C583.396362,636.196045 580.985352,637.096741 578.412415,640.051819 
	C574.900940,644.084839 571.444458,648.512878 564.995728,646.529175 
	C564.989319,622.366333 564.984619,598.671936 564.980408,574.520752 
	C564.982361,570.706116 564.983887,567.348206 564.985352,563.990234 
z"/>
<path fill="#439B53" opacity="1.000000" stroke="none" 
	d="
M419.218597,633.975342 
	C419.177094,611.622742 419.135590,589.270081 419.564758,566.455994 
	C423.408722,565.392273 426.763611,564.480957 430.160797,564.278076 
	C433.309967,564.090027 436.504547,564.656067 439.678711,564.895508 
	C441.721680,565.049622 443.761414,565.293823 445.806946,565.357300 
	C450.335052,565.497925 454.615021,566.760254 458.989899,562.992432 
	C466.031708,556.927856 472.423401,548.294739 483.956848,551.970581 
	C484.397217,552.110840 484.977142,552.017395 485.435516,551.864014 
	C488.574097,550.814026 491.697510,549.718872 494.825836,548.638306 
	C496.432709,547.580994 496.399139,543.103394 500.878693,546.635681 
	C500.386810,547.282898 499.969849,547.615540 499.845428,548.034973 
	C499.439423,549.403625 498.665619,550.923706 498.974335,552.148254 
	C499.165283,552.905823 501.064819,553.232605 502.197357,553.752808 
	C502.700958,552.346802 503.286865,550.963196 503.677521,549.526489 
	C503.914764,548.654053 503.493866,547.388000 503.979401,546.832581 
	C507.091064,543.272705 510.428650,539.911255 513.574524,536.379944 
	C515.275208,534.470825 516.743408,532.354614 518.316467,530.331848 
	C518.436401,530.423584 518.556274,530.515259 518.676208,530.606995 
	C521.907593,526.953674 525.139038,523.300415 528.995117,518.940918 
	C528.995117,545.155090 528.995117,570.579956 528.622803,596.083130 
	C525.783203,601.216431 526.121338,607.583679 520.024597,610.958923 
	C516.091492,613.136292 513.193848,617.138428 509.331635,619.506470 
	C507.025665,620.920410 503.613708,621.580383 500.943268,621.130127 
	C495.492065,620.211182 491.007599,620.619568 486.628693,624.574646 
	C484.449219,626.543213 479.996765,628.583252 477.964966,627.628296 
	C472.489716,625.055115 467.674530,627.133484 462.543610,627.550110 
	C460.887482,627.684570 458.097504,626.663391 457.571747,625.427979 
	C456.179901,622.157532 454.305542,620.627991 450.790436,620.986877 
	C447.854523,621.286560 443.431274,620.352600 442.246094,621.917969 
	C438.938507,626.286438 430.949982,624.078186 430.042816,631.132996 
	C430.006012,631.419434 429.261780,631.722778 428.803223,631.829712 
	C425.614868,632.572876 422.414886,633.266113 419.218597,633.975342 
z"/>
<path fill="#3B9450" opacity="1.000000" stroke="none" 
	d="
M419.148163,634.441956 
	C422.414886,633.266113 425.614868,632.572876 428.803223,631.829712 
	C429.261780,631.722778 430.006012,631.419434 430.042816,631.132996 
	C430.949982,624.078186 438.938507,626.286438 442.246094,621.917969 
	C443.431274,620.352600 447.854523,621.286560 450.790436,620.986877 
	C454.305542,620.627991 456.179901,622.157532 457.571747,625.427979 
	C458.097504,626.663391 460.887482,627.684570 462.543610,627.550110 
	C467.674530,627.133484 472.489716,625.055115 477.964966,627.628296 
	C479.996765,628.583252 484.449219,626.543213 486.628693,624.574646 
	C491.007599,620.619568 495.492065,620.211182 500.943268,621.130127 
	C503.613708,621.580383 507.025665,620.920410 509.331635,619.506470 
	C513.193848,617.138428 516.091492,613.136292 520.024597,610.958923 
	C526.121338,607.583679 525.783203,601.216431 528.623169,596.551208 
	C528.999207,613.715637 528.960327,630.490540 529.075989,647.264343 
	C529.086670,648.818909 530.079834,650.366699 530.616882,651.917603 
	C530.713196,668.335388 530.838196,684.753113 530.894348,701.171082 
	C530.924988,710.129578 530.838867,719.088440 530.455688,728.516113 
	C529.737244,728.989990 529.368591,728.994995 529.000000,728.625000 
	C528.999146,727.500000 528.998352,726.750000 528.999023,725.531372 
	C529.000488,706.901611 529.000488,688.740540 529.000488,671.667969 
	C525.727051,671.835632 522.538696,672.958496 521.341919,671.877197 
	C517.979492,668.839111 517.085754,671.216248 515.236328,673.341919 
	C511.258057,677.914551 506.865265,682.125610 502.860901,686.677063 
	C501.748016,687.941956 501.471436,689.916077 500.680023,691.499268 
	C500.126373,692.606812 499.243713,694.560242 498.689728,694.498718 
	C493.924957,693.969727 489.081970,693.480225 484.502106,692.152100 
	C480.544922,691.004639 477.109589,690.347107 474.759369,693.247498 
	C469.331329,692.092773 464.563232,691.047058 459.775421,690.101074 
	C459.197113,689.986816 458.494263,690.365295 457.879181,690.595642 
	C450.691742,693.287537 443.560120,696.143738 436.288971,698.584900 
	C434.636292,699.139771 432.069916,698.896484 430.683655,697.930481 
	C427.577942,695.766235 425.307220,696.249451 422.745270,698.627563 
	C421.883301,699.427673 420.389740,699.547485 419.184875,699.978210 
	C419.149139,678.288330 419.113434,656.598450 419.148163,634.441956 
M528.886902,656.435303 
	C528.534729,656.149475 527.910706,655.578979 527.869202,655.618530 
	C525.259460,658.110413 525.446594,663.326599 528.976746,667.141602 
	C528.976746,663.310059 528.976746,660.270691 528.886902,656.435303 
z"/>
<path fill="#7AAE58" opacity="1.000000" stroke="none" 
	d="
M564.997559,646.997559 
	C571.444458,648.512878 574.900940,644.084839 578.412415,640.051819 
	C580.985352,637.096741 583.396362,636.196045 586.866577,638.744568 
	C591.705444,642.298279 597.208801,641.637756 602.733582,640.701904 
	C604.555786,640.393311 606.499268,640.718811 608.378723,640.864502 
	C609.292175,640.935242 610.175476,641.348450 611.090088,641.455750 
	C619.692383,642.463989 628.397339,642.943115 636.863037,644.628052 
	C641.298706,645.510864 643.600891,642.688110 646.854797,641.490723 
	C650.941650,639.986938 655.030518,638.486389 659.147156,637.067688 
	C659.716919,636.871338 660.916382,636.952393 661.041138,637.242188 
	C663.836792,643.736938 671.528625,640.686340 675.719177,644.891663 
	C678.398682,647.580627 681.858398,645.902588 684.745361,643.793640 
	C686.263245,642.684875 688.068970,641.970032 690.173462,641.151978 
	C690.699341,657.112122 690.802551,672.997498 690.883484,688.883057 
	C690.891052,690.369629 690.758606,691.856873 690.181274,693.706421 
	C688.267578,694.782104 686.768433,695.354797 685.476440,696.232361 
	C679.697571,700.157471 673.456543,704.310486 666.447021,702.667419 
	C655.826416,700.177917 645.209106,700.066956 634.492493,699.978027 
	C633.016541,699.965759 631.547302,699.588623 630.067810,699.500488 
	C622.093018,699.024780 614.102600,698.083313 606.143982,698.295410 
	C599.744385,698.466064 593.401184,700.213196 586.996643,700.942139 
	C583.291016,701.363892 579.491150,701.433960 575.776306,701.134094 
	C573.199280,700.926147 570.654907,699.932007 568.175903,699.061523 
	C567.021545,698.656128 566.056885,697.710510 565.003174,696.669434 
	C564.993042,695.875183 564.986145,695.421204 564.979004,694.500732 
	C564.985107,678.355286 564.991333,662.676392 564.997559,646.997559 
z"/>
<path fill="#70A755" opacity="1.000000" stroke="none" 
	d="
M565.006287,697.009766 
	C566.056885,697.710510 567.021545,698.656128 568.175903,699.061523 
	C570.654907,699.932007 573.199280,700.926147 575.776306,701.134094 
	C579.491150,701.433960 583.291016,701.363892 586.996643,700.942139 
	C593.401184,700.213196 599.744385,698.466064 606.143982,698.295410 
	C614.102600,698.083313 622.093018,699.024780 630.067810,699.500488 
	C631.547302,699.588623 633.016541,699.965759 634.492493,699.978027 
	C645.209106,700.066956 655.826416,700.177917 666.447021,702.667419 
	C673.456543,704.310486 679.697571,700.157471 685.476440,696.232361 
	C686.768433,695.354797 688.267578,694.782104 690.096619,694.140076 
	C690.550476,712.247864 690.578979,730.284607 690.112793,748.692139 
	C688.755493,749.420959 687.612305,749.540833 687.074341,750.174500 
	C682.339172,755.752014 677.869141,756.395142 672.840454,752.587646 
	C669.814758,753.116577 667.299927,753.689880 664.752747,753.977417 
	C655.733276,754.995605 646.714050,756.046631 637.672668,756.830261 
	C631.026245,757.406189 624.470703,757.407349 618.872375,752.580261 
	C617.703918,751.572754 615.318909,751.647034 613.527466,751.757202 
	C609.364441,752.013306 605.219238,752.576904 601.071655,753.057739 
	C599.937744,753.189148 598.828247,753.524048 597.695190,753.671265 
	C591.458984,754.481812 585.030762,753.802490 578.986694,756.131897 
	C577.809448,756.585632 576.078125,756.456482 575.422668,757.262939 
	C572.366577,761.023438 568.746826,760.128540 564.995850,758.529175 
	C564.998169,737.710449 565.002258,717.360107 565.006287,697.009766 
z"/>
<path fill="#48A055" opacity="1.000000" stroke="none" 
	d="
M530.707275,651.463989 
	C530.079834,650.366699 529.086670,648.818909 529.075989,647.264343 
	C528.960327,630.490540 528.999207,613.715637 528.995483,596.472961 
	C528.995117,570.579956 528.995117,545.155090 528.995117,518.940918 
	C525.139038,523.300415 521.907593,526.953674 518.676208,530.606995 
	C518.556274,530.515259 518.436401,530.423584 518.316467,530.331848 
	C516.743408,532.354614 515.275208,534.470825 513.574524,536.379944 
	C510.428650,539.911255 507.091064,543.272705 503.979401,546.832581 
	C503.493866,547.388000 503.914764,548.654053 503.677521,549.526489 
	C503.286865,550.963196 502.700958,552.346802 502.197357,553.752808 
	C501.064819,553.232605 499.165283,552.905823 498.974335,552.148254 
	C498.665619,550.923706 499.439423,549.403625 499.845428,548.034973 
	C499.969849,547.615540 500.386810,547.282898 500.878693,546.635681 
	C496.399139,543.103394 496.432709,547.580994 494.825836,548.638306 
	C491.697510,549.718872 488.574097,550.814026 485.435516,551.864014 
	C484.977142,552.017395 484.397217,552.110840 483.956848,551.970581 
	C472.423401,548.294739 466.031708,556.927856 458.989899,562.992432 
	C454.615021,566.760254 450.335052,565.497925 445.806946,565.357300 
	C443.761414,565.293823 441.721680,565.049622 439.678711,564.895508 
	C436.504547,564.656067 433.309967,564.090027 430.160797,564.278076 
	C426.763611,564.480957 423.408722,565.392273 419.632324,565.991333 
	C419.147064,543.509216 419.125153,521.029785 418.919220,498.552063 
	C418.887573,495.096832 420.485046,494.198059 423.412994,494.206299 
	C428.409027,494.220337 433.405121,494.202484 438.401184,494.201721 
	C466.212799,494.197479 494.024384,494.193909 521.835999,494.191223 
	C530.277161,494.190399 530.931030,494.852142 530.923218,503.127289 
	C530.876526,552.421631 530.838501,601.715942 530.707275,651.463989 
M527.021362,506.719604 
	C525.538147,509.032227 525.430359,511.043793 527.549805,512.567810 
	C528.105835,512.450928 528.661926,512.334106 529.217957,512.217224 
	C528.713257,510.282043 528.208557,508.346893 527.021362,506.719604 
z"/>
<path fill="#4F9B55" opacity="1.000000" stroke="none" 
	d="
M723.914551,663.474731 
	C724.992859,660.860291 726.019714,658.711426 727.206055,656.228760 
	C731.027100,657.478455 735.328308,659.534363 739.162476,655.268677 
	C739.609619,654.771240 741.171509,654.891968 742.036255,655.212463 
	C752.328918,659.026917 762.957397,660.854187 773.918274,661.067200 
	C777.579712,661.138367 781.272461,661.469788 784.871155,662.121948 
	C786.711243,662.455444 788.692444,663.422241 790.051880,664.697632 
	C792.734924,667.214661 795.502197,668.042847 799.057800,667.016296 
	C809.078064,664.123169 819.455566,662.374268 828.942078,657.798096 
	C830.914246,656.846741 832.606201,655.314453 834.814270,654.069458 
	C835.213257,654.492188 835.225281,654.895386 834.880859,655.867798 
	C834.724854,658.987915 834.925354,661.538757 835.125793,664.089661 
	C835.158142,666.078735 835.190491,668.067871 834.860107,670.772278 
	C834.707214,675.685120 834.916992,679.882690 835.126709,684.080200 
	C835.150269,686.408386 835.173767,688.736572 834.848999,691.768555 
	C834.691406,694.997620 834.882202,697.522949 835.072937,700.048218 
	C834.962158,702.508789 834.851379,704.969360 834.152710,707.780151 
	C832.904724,709.335693 832.419739,710.691589 831.543457,711.711182 
	C830.219360,713.251770 828.678894,715.699890 827.132202,715.776367 
	C817.819397,716.236816 809.606079,721.447754 799.741638,720.646179 
	C792.308777,720.042236 785.269470,719.121277 778.181030,716.931213 
	C774.161499,715.689331 770.796997,712.200439 765.748230,713.776184 
	C762.205200,714.882080 758.212830,714.937378 754.440002,714.825500 
	C748.913940,714.661621 743.411621,713.704224 737.885376,713.534363 
	C735.219299,713.452393 732.536804,714.521179 729.834961,714.847046 
	C725.396790,715.382385 726.373047,718.894958 725.779724,721.649719 
	C725.659790,722.206665 724.596741,722.560547 723.968506,723.007996 
	C723.933350,703.318726 723.898193,683.629517 723.914551,663.474731 
z"/>
<path fill="#338C4D" opacity="1.000000" stroke="none" 
	d="
M419.122467,700.445557 
	C420.389740,699.547485 421.883301,699.427673 422.745270,698.627563 
	C425.307220,696.249451 427.577942,695.766235 430.683655,697.930481 
	C432.069916,698.896484 434.636292,699.139771 436.288971,698.584900 
	C443.560120,696.143738 450.691742,693.287537 457.879181,690.595642 
	C458.494263,690.365295 459.197113,689.986816 459.775421,690.101074 
	C464.563232,691.047058 469.331329,692.092773 474.759369,693.247498 
	C477.109589,690.347107 480.544922,691.004639 484.502106,692.152100 
	C489.081970,693.480225 493.924957,693.969727 498.689728,694.498718 
	C499.243713,694.560242 500.126373,692.606812 500.680023,691.499268 
	C501.471436,689.916077 501.748016,687.941956 502.860901,686.677063 
	C506.865265,682.125610 511.258057,677.914551 515.236328,673.341919 
	C517.085754,671.216248 517.979492,668.839111 521.341919,671.877197 
	C522.538696,672.958496 525.727051,671.835632 529.000488,671.667969 
	C529.000488,688.740540 529.000488,706.901611 528.647705,725.569580 
	C526.978394,727.480713 525.722229,728.948730 524.326294,730.269165 
	C523.186584,731.347473 522.011597,732.527893 520.625366,733.183167 
	C513.169312,736.707886 505.666168,740.136719 498.117371,743.457825 
	C496.800049,744.037415 495.168335,744.211121 493.714569,744.108459 
	C490.527557,743.883362 487.369354,743.137390 484.184601,743.025574 
	C481.259918,742.922852 477.217590,744.683350 475.594452,743.323364 
	C471.397339,739.806641 469.198334,741.654297 466.873932,745.133789 
	C464.693909,744.054199 462.735931,742.207703 460.902313,742.323853 
	C451.512665,742.918640 442.301208,743.837158 434.969238,751.275635 
	C430.891357,755.412659 425.860199,759.110291 419.181580,757.980591 
	C419.141083,738.958069 419.100586,719.935486 419.122467,700.445557 
z"/>
<path fill="#65A052" opacity="1.000000" stroke="none" 
	d="
M564.997559,758.997559 
	C568.746826,760.128540 572.366577,761.023438 575.422668,757.262939 
	C576.078125,756.456482 577.809448,756.585632 578.986694,756.131897 
	C585.030762,753.802490 591.458984,754.481812 597.695190,753.671265 
	C598.828247,753.524048 599.937744,753.189148 601.071655,753.057739 
	C605.219238,752.576904 609.364441,752.013306 613.527466,751.757202 
	C615.318909,751.647034 617.703918,751.572754 618.872375,752.580261 
	C624.470703,757.407349 631.026245,757.406189 637.672668,756.830261 
	C646.714050,756.046631 655.733276,754.995605 664.752747,753.977417 
	C667.299927,753.689880 669.814758,753.116577 672.840454,752.587646 
	C677.869141,756.395142 682.339172,755.752014 687.074341,750.174500 
	C687.612305,749.540833 688.755493,749.420959 690.034668,749.117798 
	C690.480896,762.879822 690.510498,776.586914 690.031250,790.672668 
	C683.891602,792.277893 678.507935,795.498291 672.419373,793.143494 
	C672.074951,793.010315 671.520996,793.551392 671.045410,793.603333 
	C668.538940,793.876587 665.910950,794.687622 663.536072,794.226135 
	C653.858276,792.345581 644.569153,792.768982 635.026428,795.763916 
	C627.709534,798.060425 619.869690,798.975952 612.186340,799.718506 
	C607.150269,800.205200 601.978210,799.095520 596.867798,799.105225 
	C595.084473,799.108643 592.674805,799.801331 591.623230,801.068726 
	C584.678040,809.439331 575.427063,805.799744 567.984741,806.899841 
	C566.595520,804.617065 565.801453,803.312195 565.003784,801.538208 
	C564.996094,795.041565 564.991943,789.014099 564.988647,782.518799 
	C564.992188,774.366516 564.994873,766.682007 564.997559,758.997559 
z"/>
<path fill="#5A974E" opacity="1.000000" stroke="none" 
	d="
M565.007324,802.007324 
	C565.801453,803.312195 566.595520,804.617065 567.984741,806.899841 
	C575.427063,805.799744 584.678040,809.439331 591.623230,801.068726 
	C592.674805,799.801331 595.084473,799.108643 596.867798,799.105225 
	C601.978210,799.095520 607.150269,800.205200 612.186340,799.718506 
	C619.869690,798.975952 627.709534,798.060425 635.026428,795.763916 
	C644.569153,792.768982 653.858276,792.345581 663.536072,794.226135 
	C665.910950,794.687622 668.538940,793.876587 671.045410,793.603333 
	C671.520996,793.551392 672.074951,793.010315 672.419373,793.143494 
	C678.507935,795.498291 683.891602,792.277893 689.961060,791.106445 
	C690.593445,805.792969 690.787231,820.424316 690.557617,835.517029 
	C687.109619,834.888672 684.631348,835.534668 681.822571,837.311707 
	C678.989197,839.104248 675.416565,840.663818 672.165771,840.667908 
	C665.190063,840.676697 658.200562,839.730103 651.241211,838.954529 
	C647.151855,838.498779 643.112793,837.600159 639.044800,836.939575 
	C636.507324,836.527527 633.967407,836.036072 631.410278,835.880798 
	C630.173828,835.805847 628.838501,836.831421 627.644531,836.665161 
	C614.833740,834.881348 602.262085,836.725708 589.603027,838.472717 
	C584.386536,839.192627 579.824158,843.812927 574.023071,841.008911 
	C571.300964,839.693054 568.408813,838.729187 565.002441,837.369812 
	C565.002441,847.120667 565.002441,856.561523 565.002075,866.470947 
	C564.972839,875.397278 564.943970,883.855164 564.915161,892.312988 
	C564.332520,890.858154 563.248535,889.405029 563.243347,887.948181 
	C563.177673,869.557678 563.267639,851.166626 563.786743,832.187988 
	C564.501343,830.019836 564.945007,828.441284 564.959473,826.858704 
	C565.035339,818.575500 565.002441,810.291199 565.007324,802.007324 
z"/>
<path fill="#449352" opacity="1.000000" stroke="none" 
	d="
M723.925537,723.474304 
	C724.596741,722.560547 725.659790,722.206665 725.779724,721.649719 
	C726.373047,718.894958 725.396790,715.382385 729.834961,714.847046 
	C732.536804,714.521179 735.219299,713.452393 737.885376,713.534363 
	C743.411621,713.704224 748.913940,714.661621 754.440002,714.825500 
	C758.212830,714.937378 762.205200,714.882080 765.748230,713.776184 
	C770.796997,712.200439 774.161499,715.689331 778.181030,716.931213 
	C785.269470,719.121277 792.308777,720.042236 799.741638,720.646179 
	C809.606079,721.447754 817.819397,716.236816 827.132202,715.776367 
	C828.678894,715.699890 830.219360,713.251770 831.543457,711.711182 
	C832.419739,710.691589 832.904724,709.335693 833.962341,708.136719 
	C834.631042,718.431335 834.902283,728.719482 834.839355,739.732300 
	C834.697388,742.656372 834.889465,744.855835 835.081543,747.055359 
	C834.979309,752.208862 834.877014,757.362366 834.101501,762.766968 
	C829.153320,763.957886 827.596924,759.953308 824.727661,758.325806 
	C823.044678,757.371277 820.380920,755.991699 819.207153,756.656067 
	C813.224304,760.042725 806.852295,761.291809 800.152649,761.432678 
	C792.371216,761.596252 784.577332,761.917419 776.811523,761.605530 
	C774.589539,761.516296 772.549561,759.140442 770.237305,758.414307 
	C768.012146,757.715454 765.476135,757.305603 763.192383,757.617004 
	C753.843750,758.891968 744.575317,761.154419 735.201965,761.662292 
	C731.137573,761.882568 727.255371,760.751160 723.972534,764.004883 
	C723.942566,750.650146 723.912537,737.295349 723.925537,723.474304 
z"/>
<path fill="#458849" opacity="1.000000" stroke="none" 
	d="
M564.986694,892.623535 
	C564.943970,883.855164 564.972839,875.397278 565.347107,866.524292 
	C566.174255,866.531860 566.783569,866.872070 567.118103,867.389832 
	C570.813049,873.108582 573.959595,873.633484 580.241638,871.057251 
	C584.733582,869.215088 589.721863,867.616638 594.484924,867.626770 
	C601.793945,867.642334 609.102234,869.114746 616.406372,870.005432 
	C623.945190,870.924744 631.935974,867.521423 639.100891,872.412231 
	C639.676025,872.804810 640.932190,872.093689 641.875061,872.077637 
	C643.421631,872.051208 644.970703,872.220520 646.518860,872.223511 
	C648.917236,872.228149 651.340637,872.367920 653.708557,872.080566 
	C657.770752,871.587708 661.903625,869.895874 665.817810,870.347107 
	C673.231628,871.201599 680.285706,872.050171 686.682373,866.983582 
	C687.708252,866.170959 689.475830,866.294739 690.900513,865.985718 
	C690.942566,873.943726 691.363403,881.927734 690.819336,889.845520 
	C690.631226,892.582764 688.317200,895.364563 686.485779,897.751038 
	C684.074524,900.892944 681.181335,903.665039 677.893799,906.637329 
	C672.097473,903.136902 666.110840,902.901306 660.220398,903.106079 
	C648.451416,903.515137 636.695190,904.312683 624.937378,905.010986 
	C616.832214,905.492310 608.877930,905.770813 601.496033,910.486633 
	C596.953857,913.388306 591.126343,914.277893 585.876038,916.070923 
	C578.936768,908.358704 571.997498,900.646423 564.986694,892.623535 
z"/>
<path fill="#2C864B" opacity="1.000000" stroke="none" 
	d="
M419.123047,758.446411 
	C425.860199,759.110291 430.891357,755.412659 434.969238,751.275635 
	C442.301208,743.837158 451.512665,742.918640 460.902313,742.323853 
	C462.735931,742.207703 464.693909,744.054199 466.873932,745.133789 
	C469.198334,741.654297 471.397339,739.806641 475.594452,743.323364 
	C477.217590,744.683350 481.259918,742.922852 484.184601,743.025574 
	C487.369354,743.137390 490.527557,743.883362 493.714569,744.108459 
	C495.168335,744.211121 496.800049,744.037415 498.117371,743.457825 
	C505.666168,740.136719 513.169312,736.707886 520.625366,733.183167 
	C522.011597,732.527893 523.186584,731.347473 524.326294,730.269165 
	C525.722229,728.948730 526.978394,727.480713 528.646240,726.038208 
	C528.998352,726.750000 528.999146,727.500000 528.999023,729.093628 
	C528.998779,742.291565 528.999390,754.645752 528.607544,767.007141 
	C523.434204,769.067627 518.390198,769.456360 513.923340,773.555481 
	C507.968628,779.019897 499.650543,781.087524 491.139069,781.066895 
	C485.531525,781.053284 479.677307,780.807434 474.391479,782.293884 
	C470.145905,783.487854 464.074493,781.919556 461.865570,787.532410 
	C460.219391,791.715271 457.758789,794.858582 453.936462,797.051270 
	C443.031464,789.864258 432.078644,782.747498 421.287689,775.393188 
	C420.066559,774.560974 419.245422,772.428650 419.126495,770.833069 
	C418.831787,766.879822 419.051453,762.888367 419.123047,758.446411 
z"/>
<path fill="#50914C" opacity="1.000000" stroke="none" 
	d="
M690.945190,865.520020 
	C689.475830,866.294739 687.708252,866.170959 686.682373,866.983582 
	C680.285706,872.050171 673.231628,871.201599 665.817810,870.347107 
	C661.903625,869.895874 657.770752,871.587708 653.708557,872.080566 
	C651.340637,872.367920 648.917236,872.228149 646.518860,872.223511 
	C644.970703,872.220520 643.421631,872.051208 641.875061,872.077637 
	C640.932190,872.093689 639.676025,872.804810 639.100891,872.412231 
	C631.935974,867.521423 623.945190,870.924744 616.406372,870.005432 
	C609.102234,869.114746 601.793945,867.642334 594.484924,867.626770 
	C589.721863,867.616638 584.733582,869.215088 580.241638,871.057251 
	C573.959595,873.633484 570.813049,873.108582 567.118103,867.389832 
	C566.783569,866.872070 566.174255,866.531860 565.347534,866.055786 
	C565.002441,856.561523 565.002441,847.120667 565.002441,837.369812 
	C568.408813,838.729187 571.300964,839.693054 574.023071,841.008911 
	C579.824158,843.812927 584.386536,839.192627 589.603027,838.472717 
	C602.262085,836.725708 614.833740,834.881348 627.644531,836.665161 
	C628.838501,836.831421 630.173828,835.805847 631.410278,835.880798 
	C633.967407,836.036072 636.507324,836.527527 639.044800,836.939575 
	C643.112793,837.600159 647.151855,838.498779 651.241211,838.954529 
	C658.200562,839.730103 665.190063,840.676697 672.165771,840.667908 
	C675.416565,840.663818 678.989197,839.104248 681.822571,837.311707 
	C684.631348,835.534668 687.109619,834.888672 690.506470,835.982361 
	C690.915833,845.675659 690.952881,855.364929 690.945190,865.520020 
z"/>
<path fill="#377E45" opacity="1.000000" stroke="none" 
	d="
M586.036682,916.367920 
	C591.126343,914.277893 596.953857,913.388306 601.496033,910.486633 
	C608.877930,905.770813 616.832214,905.492310 624.937378,905.010986 
	C636.695190,904.312683 648.451416,903.515137 660.220398,903.106079 
	C666.110840,902.901306 672.097473,903.136902 677.619202,906.819824 
	C664.409485,923.702393 650.821838,940.403015 637.371521,957.213501 
	C633.971252,961.463318 631.009033,966.063660 627.909546,970.413025 
	C613.931885,952.402161 600.064636,934.533569 586.036682,916.367920 
z"/>
<path fill="#F7F8F8" opacity="1.000000" stroke="none" 
	d="
M701.651001,213.719559 
	C699.432373,217.243698 697.414734,220.466339 694.584167,224.987579 
	C693.681702,216.095215 692.758911,208.546310 692.182678,200.971024 
	C691.261536,188.861008 691.361450,188.843170 679.499268,185.770737 
	C672.475037,183.951401 665.440613,182.171387 657.032166,180.021133 
	C665.893982,175.844849 673.577881,172.197388 681.284729,168.598877 
	C689.342590,164.836472 689.383423,164.855148 688.836243,155.820267 
	C688.315125,147.214249 687.719482,138.612747 687.067993,128.654053 
	C690.504028,132.548431 693.157837,135.577545 695.835449,138.585388 
	C698.933655,142.065582 702.059875,145.520844 705.161438,148.998062 
	C711.158020,155.721039 711.158569,155.735062 719.761353,152.446808 
	C727.763916,149.387985 735.756348,146.302780 744.887939,142.793091 
	C738.317749,153.774078 732.383362,163.692490 726.430603,173.641678 
	C733.648315,182.640396 740.789307,191.543518 748.877075,201.626953 
	C738.334167,199.304306 729.223267,197.561264 720.269592,195.217239 
	C715.532898,193.977173 712.711914,194.721939 710.455933,199.393356 
	C708.082947,204.307297 704.760010,208.762451 701.651001,213.719559 
z"/>
<path fill="#398B4E" opacity="1.000000" stroke="none" 
	d="
M816.114624,786.070801 
	C805.648254,793.647217 795.181824,801.223572 784.120239,808.732056 
	C779.581055,804.023682 777.962708,803.863098 773.545288,807.990173 
	C770.827637,810.529175 768.323975,811.327759 764.792786,809.083374 
	C762.709290,807.759033 759.776001,807.130005 757.269043,807.235779 
	C750.218811,807.533386 743.188904,808.346130 736.156616,809.015564 
	C733.868652,809.233398 731.432190,809.239136 729.380493,810.098450 
	C728.097046,810.636047 727.292969,812.520874 726.477600,813.919922 
	C725.529236,815.547180 724.803589,817.304199 723.981323,819.004944 
	C723.957275,809.649902 723.933228,800.294800 724.324890,790.388855 
	C725.679993,786.350891 726.619507,782.863831 727.263794,780.472290 
	C729.973633,779.993530 731.861511,779.824158 733.646057,779.301575 
	C735.712280,778.696533 737.639465,777.597229 739.716431,777.054199 
	C741.606018,776.560120 743.610962,776.476135 745.572754,776.294067 
	C753.294067,775.577576 760.309998,769.856201 768.817200,773.798157 
	C771.786499,775.174011 775.850647,774.265137 779.414673,774.262451 
	C785.477112,774.257812 791.542664,774.002869 797.600281,774.141968 
	C800.266052,774.203186 803.536621,774.151672 805.442871,775.592773 
	C809.386658,778.574097 812.600586,782.520935 816.114624,786.070801 
z"/>
<path fill="#248049" opacity="1.000000" stroke="none" 
	d="
M454.112213,797.338074 
	C457.758789,794.858582 460.219391,791.715271 461.865570,787.532410 
	C464.074493,781.919556 470.145905,783.487854 474.391479,782.293884 
	C479.677307,780.807434 485.531525,781.053284 491.139069,781.066895 
	C499.650543,781.087524 507.968628,779.019897 513.923340,773.555481 
	C518.390198,769.456360 523.434204,769.067627 528.607544,767.257141 
	C529.000000,767.500000 529.000000,768.000000 528.999146,768.468628 
	C528.999634,779.289917 529.001038,789.642517 529.001221,800.247559 
	C528.999207,800.668274 528.998352,800.836609 528.637573,801.044678 
	C524.294067,803.370850 520.314941,804.948975 517.181702,809.219666 
	C512.960938,814.972656 506.319977,818.895996 501.134277,824.025696 
	C499.417786,825.723633 498.990143,828.724487 497.973236,831.129639 
	C488.568665,823.834839 479.184387,816.513550 469.751343,809.255798 
	C464.639832,805.322998 459.445160,801.498291 454.112213,797.338074 
z"/>
<path fill="#3D9051" opacity="1.000000" stroke="none" 
	d="
M816.439819,785.990906 
	C812.600586,782.520935 809.386658,778.574097 805.442871,775.592773 
	C803.536621,774.151672 800.266052,774.203186 797.600281,774.141968 
	C791.542664,774.002869 785.477112,774.257812 779.414673,774.262451 
	C775.850647,774.265137 771.786499,775.174011 768.817200,773.798157 
	C760.309998,769.856201 753.294067,775.577576 745.572754,776.294067 
	C743.610962,776.476135 741.606018,776.560120 739.716431,777.054199 
	C737.639465,777.597229 735.712280,778.696533 733.646057,779.301575 
	C731.861511,779.824158 729.973633,779.993530 727.263794,780.472290 
	C726.619507,782.863831 725.679993,786.350891 724.358154,789.921387 
	C723.951782,781.649597 723.927856,773.294373 723.938232,764.471985 
	C727.255371,760.751160 731.137573,761.882568 735.201965,761.662292 
	C744.575317,761.154419 753.843750,758.891968 763.192383,757.617004 
	C765.476135,757.305603 768.012146,757.715454 770.237305,758.414307 
	C772.549561,759.140442 774.589539,761.516296 776.811523,761.605530 
	C784.577332,761.917419 792.371216,761.596252 800.152649,761.432678 
	C806.852295,761.291809 813.224304,760.042725 819.207153,756.656067 
	C820.380920,755.991699 823.044678,757.371277 824.727661,758.325806 
	C827.596924,759.953308 829.153320,763.957886 833.862793,763.043091 
	C834.351746,766.027893 834.406128,768.987793 834.097168,772.440063 
	C833.489990,772.955811 833.246216,772.979126 832.787842,772.721313 
	C831.385376,771.917114 830.146118,770.867798 829.020020,770.977783 
	C826.476196,771.226135 823.988403,772.047180 821.477783,772.635193 
	C822.035095,774.662720 822.574280,776.695557 823.159058,778.715149 
	C823.380920,779.481628 823.707886,780.217651 823.986938,780.967651 
	C821.579651,782.615417 819.172302,784.263245 816.439819,785.990906 
z"/>
<path fill="#2E844B" opacity="1.000000" stroke="none" 
	d="
M723.952271,819.472412 
	C724.803589,817.304199 725.529236,815.547180 726.477600,813.919922 
	C727.292969,812.520874 728.097046,810.636047 729.380493,810.098450 
	C731.432190,809.239136 733.868652,809.233398 736.156616,809.015564 
	C743.188904,808.346130 750.218811,807.533386 757.269043,807.235779 
	C759.776001,807.130005 762.709290,807.759033 764.792786,809.083374 
	C768.323975,811.327759 770.827637,810.529175 773.545288,807.990173 
	C777.962708,803.863098 779.581055,804.023682 783.813660,808.875244 
	C774.902588,816.686340 765.616028,824.184265 756.526428,831.913696 
	C746.417419,840.509888 736.489441,849.318848 726.475464,858.026917 
	C725.899536,858.527771 725.259705,858.955200 723.923279,859.966431 
	C723.923279,846.068726 723.923279,833.004272 723.952271,819.472412 
z"/>
<path fill="#A6CF6B" opacity="1.000000" stroke="none" 
	d="
M564.982910,563.541626 
	C564.983887,567.348206 564.982361,570.706116 564.774292,574.520264 
	C564.294312,574.951904 564.020935,574.929138 563.747375,574.908203 
	C563.616211,573.258911 563.371094,571.609619 563.370178,569.960266 
	C563.332581,503.541718 563.317078,437.123199 563.298828,370.704651 
	C563.298157,368.411774 563.298767,366.118927 563.298767,363.504944 
	C606.088074,363.504944 648.251160,363.504944 691.017090,363.504944 
	C691.017090,366.620361 691.017090,369.396545 690.941833,372.582397 
	C685.585876,373.546478 684.984070,375.071716 687.392456,379.601776 
	C688.417358,381.529572 688.983704,384.446106 688.269592,386.356873 
	C687.455811,388.534149 684.719543,388.859222 682.205444,389.652496 
	C675.740784,391.692230 675.039429,387.195831 672.341187,384.034943 
	C669.954834,381.239441 666.575745,379.291351 663.618652,376.956329 
	C664.199219,373.439270 664.832336,369.604004 665.537781,365.330383 
	C664.038696,365.217499 662.620239,365.018219 661.201660,365.017426 
	C630.903137,365.000641 600.604187,365.076202 570.306458,364.923676 
	C566.250854,364.903259 564.857361,365.911255 564.911194,370.168579 
	C565.138489,388.145081 565.011475,406.126068 565.018433,425.039856 
	C565.020447,432.973755 565.018188,439.973206 565.015930,446.972656 
	C565.013489,447.429321 565.011047,447.885956 565.010986,449.135681 
	C565.013550,452.944519 565.013733,455.960327 565.013916,458.976105 
	C565.010315,460.702667 565.006714,462.429230 565.005981,465.043030 
	C565.008667,469.281708 565.008545,472.633148 565.008423,475.984558 
	C565.006042,478.035004 565.003601,480.085419 565.004272,483.027466 
	C565.006958,486.942261 565.006592,489.965424 565.006165,492.988586 
	C565.003784,493.742645 565.001404,494.496674 565.001953,495.627869 
	C565.003723,507.363586 565.002625,518.722107 565.005127,530.963806 
	C565.010193,533.226135 565.011536,534.605408 565.012939,535.984619 
	C565.003479,541.009705 564.994019,546.034790 564.987549,551.903564 
	C564.990845,553.501709 564.991150,554.256104 564.991394,555.010498 
	C564.987793,557.704712 564.984131,560.398865 564.982910,563.541626 
M673.346680,365.110443 
	C673.223755,365.218597 673.056763,365.307281 672.996704,365.443237 
	C672.967224,365.510040 673.133179,365.761780 673.215332,365.764069 
	C674.086487,365.788269 674.958557,365.779083 675.830383,365.779083 
	C675.831177,365.561310 675.831970,365.343536 675.832825,365.125763 
	C675.197266,365.092712 674.561768,365.059662 673.346680,365.110443 
M688.582581,365.518555 
	C688.582581,365.518555 688.477173,365.579681 688.582581,365.518555 
z"/>
<path fill="#1D7946" opacity="1.000000" stroke="none" 
	d="
M498.129883,831.416016 
	C498.990143,828.724487 499.417786,825.723633 501.134277,824.025696 
	C506.319977,818.895996 512.960938,814.972656 517.181702,809.219666 
	C520.314941,804.948975 524.294067,803.370850 528.637573,801.507690 
	C529.363770,806.316406 529.729980,810.701904 530.096191,815.087463 
	C530.363037,819.122009 530.629883,823.156555 530.511047,827.691040 
	C530.340637,829.777222 530.555969,831.363464 530.771301,832.949646 
	C530.771301,841.731750 530.771301,850.513855 530.771301,860.389771 
	C519.470032,850.409607 508.878265,841.056030 498.129883,831.416016 
z"/>
<path fill="#90C163" opacity="1.000000" stroke="none" 
	d="
M563.575073,575.356079 
	C564.020935,574.929138 564.294312,574.951904 564.773804,574.976990 
	C564.984619,598.671936 564.989319,622.366333 564.995728,646.529175 
	C564.991333,662.676392 564.985107,678.355286 564.769287,694.504395 
	C564.281921,694.956787 564.004517,694.933594 563.727539,694.904968 
	C563.603394,694.255676 563.370667,693.606384 563.370605,692.957092 
	C563.369202,653.906067 563.386841,614.855042 563.575073,575.356079 
z"/>
<path fill="#7BB25D" opacity="1.000000" stroke="none" 
	d="
M563.553955,695.353943 
	C564.004517,694.933594 564.281921,694.956787 564.769409,694.970947 
	C564.986145,695.421204 564.993042,695.875183 565.003174,696.669434 
	C565.002258,717.360107 564.998169,737.710449 564.995850,758.529175 
	C564.994873,766.682007 564.992188,774.366516 564.770996,782.518188 
	C564.264648,782.973083 563.977661,782.951904 563.691345,782.921814 
	C563.556274,781.110962 563.303345,779.300049 563.303772,777.489197 
	C563.309692,750.260437 563.348999,723.031677 563.553955,695.353943 
z"/>
<path fill="#71B766" opacity="1.000000" stroke="none" 
	d="
M833.507385,573.958496 
	C832.063782,574.372742 830.163513,574.960510 828.262268,574.963684 
	C793.820374,575.021179 759.378479,575.008179 724.467773,575.005432 
	C725.317322,574.584351 726.635315,573.805725 727.953918,573.804565 
	C762.985962,573.774109 798.018127,573.823792 833.507385,573.958496 
z"/>
<path fill="#6CA759" opacity="1.000000" stroke="none" 
	d="
M563.521851,783.371887 
	C563.977661,782.951904 564.264648,782.973083 564.770081,782.985962 
	C564.991943,789.014099 564.996094,795.041565 565.003784,801.538208 
	C565.002441,810.291199 565.035339,818.575500 564.959473,826.858704 
	C564.945007,828.441284 564.501343,830.019836 563.932190,831.733215 
	C563.523254,815.851440 563.437866,799.836670 563.521851,783.371887 
z"/>
<path fill="#398B4E" opacity="1.000000" stroke="none" 
	d="
M824.307739,780.854492 
	C823.707886,780.217651 823.380920,779.481628 823.159058,778.715149 
	C822.574280,776.695557 822.035095,774.662720 821.477783,772.635193 
	C823.988403,772.047180 826.476196,771.226135 829.020020,770.977783 
	C830.146118,770.867798 831.385376,771.917114 832.786499,773.065430 
	C832.995483,774.150513 832.991272,774.610168 832.987061,775.069885 
	C830.200928,776.960388 827.414734,778.850891 824.307739,780.854492 
z"/>
<path fill="#318E50" opacity="1.000000" stroke="none" 
	d="
M529.000000,768.000000 
	C529.000000,768.000000 529.000000,767.500000 529.000000,767.250000 
	C528.999390,754.645752 528.998779,742.291565 528.999084,729.468628 
	C529.368591,728.994995 529.737244,728.989990 530.377991,728.975769 
	C530.705750,741.659546 530.761353,754.352600 530.469055,767.515381 
	C529.747437,767.990173 529.373718,767.995056 529.000000,768.000000 
z"/>
<path fill="#29884D" opacity="1.000000" stroke="none" 
	d="
M528.999146,768.468628 
	C529.373718,767.995056 529.747437,767.990173 530.396973,767.976074 
	C530.728577,778.326477 530.784241,788.686157 530.493835,799.515747 
	C529.765991,799.988892 529.384216,799.992004 529.002441,799.995117 
	C529.001038,789.642517 528.999634,779.289917 528.999146,768.468628 
z"/>
<path fill="#5CA459" opacity="1.000000" stroke="none" 
	d="
M835.247803,683.691406 
	C834.916992,679.882690 834.707214,675.685120 834.811523,671.196289 
	C835.206726,675.037537 835.287842,679.170044 835.247803,683.691406 
z"/>
<path fill="#22824B" opacity="1.000000" stroke="none" 
	d="
M529.001221,800.247559 
	C529.384216,799.992004 529.765991,799.988892 530.429932,799.977905 
	C530.515442,804.700928 530.318848,809.431946 530.109253,814.625183 
	C529.729980,810.701904 529.363770,806.316406 528.997559,801.467896 
	C528.998352,800.836609 528.999207,800.668274 529.001221,800.247559 
z"/>
<path fill="#22824B" opacity="1.000000" stroke="none" 
	d="
M530.829956,832.544189 
	C530.555969,831.363464 530.340637,829.777222 530.456909,828.119568 
	C530.821838,829.411621 530.855225,830.775208 530.829956,832.544189 
z"/>
<path fill="#A6CF6B" opacity="1.000000" stroke="none" 
	d="
M690.931030,377.622162 
	C689.964294,377.530151 689.072754,377.069000 688.181152,376.607849 
	C688.837524,376.080109 689.493958,375.552338 690.505676,375.016541 
	C690.909424,375.756683 690.957825,376.504852 690.931030,377.622162 
z"/>
<path fill="#5CA459" opacity="1.000000" stroke="none" 
	d="
M835.112915,699.598816 
	C834.882202,697.522949 834.691406,694.997620 834.797791,692.202454 
	C835.114197,694.338196 835.133545,696.743774 835.112915,699.598816 
z"/>
<path fill="#5CA459" opacity="1.000000" stroke="none" 
	d="
M835.161987,663.634888 
	C834.925354,661.538757 834.724854,658.987915 834.830444,656.166748 
	C835.157104,658.324341 835.177673,660.752258 835.161987,663.634888 
z"/>
<path fill="#A6CF6B" opacity="1.000000" stroke="none" 
	d="
M690.916992,427.593811 
	C690.622070,426.709045 690.404297,425.431366 690.514038,424.083740 
	C690.892334,425.076111 690.943176,426.138519 690.916992,427.593811 
z"/>
<path fill="#4F9B55" opacity="1.000000" stroke="none" 
	d="
M835.113770,746.610718 
	C834.889465,744.855835 834.697388,742.656372 834.798096,740.195435 
	C835.109253,742.011353 835.127686,744.088745 835.113770,746.610718 
z"/>
<path fill="#9DC866" opacity="1.000000" stroke="none" 
	d="
M690.611084,504.855042 
	C690.228821,503.278473 689.996094,501.241791 690.104736,498.935730 
	C690.551025,500.575897 690.655823,502.485413 690.611084,504.855042 
z"/>
<path fill="#449352" opacity="1.000000" stroke="none" 
	d="
M833.280273,775.018555 
	C832.991272,774.610168 832.995483,774.150513 833.001099,773.346619 
	C833.246216,772.979126 833.489990,772.955811 834.100952,772.880859 
	C834.169861,773.541992 833.871704,774.254578 833.280273,775.018555 
z"/>
<path fill="#FAFBFB" opacity="1.000000" stroke="none" 
	d="
M616.740967,103.333908 
	C616.523560,103.118637 616.274170,102.883659 616.024780,102.648697 
	C616.112427,102.595490 616.200012,102.542267 616.287659,102.489044 
	C616.328064,102.623093 616.368408,102.757149 616.554688,103.123352 
	C616.700684,103.355507 616.708984,103.314209 616.740967,103.333908 
z"/>
<path fill="#90BE60" opacity="1.000000" stroke="none" 
	d="
M565.308289,446.679199 
	C565.018188,439.973206 565.020447,432.973755 565.027039,425.511505 
	C565.221130,432.161072 565.410889,439.273407 565.308289,446.679199 
z"/>
<path fill="#90BE60" opacity="1.000000" stroke="none" 
	d="
M565.297180,475.700806 
	C565.008545,472.633148 565.008667,469.281708 565.009766,465.474548 
	C565.202454,468.484894 565.394165,471.950958 565.297180,475.700806 
z"/>
<path fill="#90BE60" opacity="1.000000" stroke="none" 
	d="
M565.299683,458.697174 
	C565.013733,455.960327 565.013550,452.944519 565.014771,449.478149 
	C565.205994,452.157776 565.395752,455.288025 565.299683,458.697174 
z"/>
<path fill="#90BE60" opacity="1.000000" stroke="none" 
	d="
M565.293701,492.708862 
	C565.006592,489.965424 565.006958,486.942261 565.007690,483.466827 
	C565.199158,486.152740 565.390198,489.290924 565.293701,492.708862 
z"/>
<path fill="#A6CF6B" opacity="1.000000" stroke="none" 
	d="
M677.457886,397.275269 
	C677.726135,396.421631 678.199768,395.811798 678.673340,395.201965 
	C678.976318,395.495239 679.279297,395.788513 679.582275,396.081818 
	C678.942627,396.560913 678.302917,397.040009 677.457886,397.275269 
z"/>
<path fill="#84B55B" opacity="1.000000" stroke="none" 
	d="
M565.276978,535.754517 
	C565.011536,534.605408 565.010193,533.226135 565.013245,531.433716 
	C565.192139,532.521729 565.366577,534.023071 565.276978,535.754517 
z"/>
<path fill="#84B55B" opacity="1.000000" stroke="none" 
	d="
M565.240845,554.824341 
	C564.991150,554.256104 564.990845,553.501709 564.992065,552.370056 
	C565.159119,552.874573 565.324646,553.756409 565.240845,554.824341 
z"/>
<path fill="#338C4D" opacity="1.000000" stroke="none" 
	d="
M528.931824,656.833374 
	C528.976746,660.270691 528.976746,663.310059 528.976746,667.141602 
	C525.446594,663.326599 525.259460,658.110413 527.869202,655.618530 
	C527.910706,655.578979 528.534729,656.149475 528.931824,656.833374 
z"/>
<path fill="#439B53" opacity="1.000000" stroke="none" 
	d="
M527.362610,506.565674 
	C528.208557,508.346893 528.713257,510.282043 529.217957,512.217224 
	C528.661926,512.334106 528.105835,512.450928 527.549805,512.567810 
	C525.430359,511.043793 525.538147,509.032227 527.362610,506.565674 
z"/>
<path fill="#9DC866" opacity="1.000000" stroke="none" 
	d="
M673.636475,365.068542 
	C674.561768,365.059662 675.197266,365.092712 675.832825,365.125763 
	C675.831970,365.343536 675.831177,365.561310 675.830383,365.779083 
	C674.958557,365.779083 674.086487,365.788269 673.215332,365.764069 
	C673.133179,365.761780 672.967224,365.510040 672.996704,365.443237 
	C673.056763,365.307281 673.223755,365.218597 673.636475,365.068542 
z"/>
<path fill="#9DC866" opacity="1.000000" stroke="none" 
	d="
M688.529907,365.549133 
	C688.477173,365.579681 688.582581,365.518555 688.529907,365.549133 
z"/>
</svg>